<svg width="20" height="20" viewBox="0 0 20 20" fill="none" xmlns="http://www.w3.org/2000/svg">
<path d="M9.55499 18.98C9.67249 19.1 9.83249 19.1667 9.99999 19.1667C10.1675 19.1667 10.3275 19.1 10.445 18.98L18.44 10.8792C20.5158 8.77669 20.5158 5.35419 18.44 3.25085C17.4317 2.22919 16.0908 1.66669 14.6633 1.66669C13.2358 1.66669 11.8958 2.22919 10.8875 3.25002L9.99999 4.15002L9.11249 3.25085C8.10416 2.22919 6.76332 1.66669 5.33666 1.66669C3.90916 1.66669 2.56832 2.22919 1.55999 3.25085C-0.515846 5.35419 -0.515846 8.77669 1.55999 10.8784L9.55499 18.98ZM2.44916 4.12835C3.22082 3.34752 4.24666 2.91669 5.33582 2.91669C6.42582 2.91669 7.45082 3.34752 8.22166 4.12919L9.55416 5.47919C9.78833 5.71669 10.2092 5.71669 10.4433 5.47919L11.7758 4.12835C12.5492 3.34752 13.5742 2.91669 14.6633 2.91669C15.7533 2.91669 16.7783 3.34752 17.55 4.12835C19.1475 5.74752 19.1475 8.38169 17.55 10.0017L9.99999 17.6525L2.44916 10.0009C0.851655 8.38252 0.851655 5.74752 2.44916 4.12835Z" fill="#1F4B3F"/>
</svg>
