<svg width="20" height="14" viewBox="0 0 20 14" fill="none" xmlns="http://www.w3.org/2000/svg">
<path d="M16.4773 2.84101L10.0007 8.5482L3.52269 2.84093C3.26475 2.61368 2.87157 2.63866 2.64441 2.89643C2.41733 3.15429 2.44205 3.54747 2.7 3.77472L9.58946 9.84447C9.70702 9.94801 9.85395 9.99978 10.0008 9.99978C10.1477 9.99978 10.2947 9.94801 10.4122 9.84438L17.3003 3.77463C17.5581 3.54747 17.5829 3.15421 17.3557 2.89635C17.1284 2.63874 16.7353 2.61385 16.4773 2.84101Z" fill="#1F4B3F"/>
<path d="M18.1333 0.196594H1.86675C0.837464 0.196594 0 1.03398 0 2.06334V11.9365C0 12.9659 0.837464 13.8033 1.86675 13.8033H18.1333C19.1625 13.8033 20 12.9659 20 11.9365V2.06334C20 1.03406 19.1625 0.196594 18.1333 0.196594ZM18.7555 11.9365C18.7555 12.2796 18.4764 12.5588 18.1333 12.5588H1.86675C1.5236 12.5588 1.2445 12.2796 1.2445 11.9365V2.06334C1.2445 1.72027 1.5236 1.44109 1.86675 1.44109H18.1333C18.4764 1.44109 18.7555 1.72027 18.7555 2.06334V11.9365Z" fill="#1F4B3F"/>
</svg>
