<svg width="20" height="20" viewBox="0 0 20 20" fill="none" xmlns="http://www.w3.org/2000/svg">
<path d="M16.0547 10.268V8.39844C16.0547 5.67102 14.2417 3.35934 11.7578 2.6043V1.75781C11.7578 0.788555 10.9692 0 9.99998 0C9.03073 0 8.24217 0.788555 8.24217 1.75781V2.6043C5.75819 3.35934 3.9453 5.67098 3.9453 8.39844V10.268C3.9453 12.6638 3.03209 14.9355 1.37393 16.6648C1.21143 16.8342 1.16577 17.0843 1.25788 17.3002C1.34998 17.5161 1.56209 17.6562 1.79686 17.6562H7.12924C7.40143 18.9919 8.58518 20 9.99998 20C11.4148 20 12.5985 18.9919 12.8707 17.6562H18.2031C18.4379 17.6562 18.6499 17.5161 18.7421 17.3002C18.8342 17.0843 18.7885 16.8342 18.626 16.6648C16.9679 14.9355 16.0547 12.6638 16.0547 10.268ZM9.41405 1.75781C9.41405 1.43473 9.6769 1.17188 9.99998 1.17188C10.3231 1.17188 10.5859 1.43473 10.5859 1.75781V2.37219C10.3931 2.35359 10.1976 2.34375 9.99998 2.34375C9.80233 2.34375 9.6069 2.35359 9.41405 2.37219V1.75781ZM9.99998 18.8281C9.23612 18.8281 8.58483 18.3382 8.34295 17.6562H11.657C11.4151 18.3382 10.7639 18.8281 9.99998 18.8281ZM3.05975 16.4844C4.39416 14.6956 5.11717 12.5309 5.11717 10.268V8.39844C5.11717 5.70605 7.3076 3.51562 9.99998 3.51562C12.6924 3.51562 14.8828 5.70605 14.8828 8.39844V10.268C14.8828 12.5309 15.6058 14.6956 16.9403 16.4844H3.05975Z" fill="#1F4B3F"/>
<path d="M17.6172 8.39841C17.6172 8.72201 17.8795 8.98435 18.2031 8.98435C18.5267 8.98435 18.7891 8.72201 18.7891 8.39841C18.7891 6.05076 17.8748 3.84361 16.2148 2.18357C15.986 1.95478 15.615 1.95474 15.3862 2.18357C15.1573 2.4124 15.1573 2.78337 15.3862 3.0122C16.8249 4.45091 17.6172 6.36376 17.6172 8.39841Z" fill="#1F4B3F"/>
<path d="M1.79688 8.98439C2.12047 8.98439 2.38281 8.72204 2.38281 8.39845C2.38281 6.36384 3.17516 4.45099 4.61383 3.01228C4.84266 2.78345 4.84266 2.41247 4.61383 2.18365C4.38504 1.95482 4.01402 1.95482 3.7852 2.18365C2.12516 3.84368 1.21094 6.05079 1.21094 8.39845C1.21094 8.72204 1.47328 8.98439 1.79688 8.98439Z" fill="#1F4B3F"/>
</svg>
