<svg width="40" height="40" viewBox="0 0 40 40" fill="none" xmlns="http://www.w3.org/2000/svg">
<path d="M35.3445 4.65555C34.576 3.88221 33.6619 3.26896 32.6549 2.85128C31.6478 2.43359 30.568 2.21978 29.4778 2.22222H10.5222C9.43185 2.22076 8.3519 2.43444 7.34423 2.85104C6.33657 3.26764 5.42101 3.87895 4.64999 4.64997C3.87897 5.42099 3.26765 6.33655 2.85106 7.34422C2.43446 8.35188 2.22077 9.43184 2.22224 10.5222V34.2222C2.22224 34.9685 2.45704 35.6958 2.89338 36.3012C3.32971 36.9066 3.94547 37.3593 4.65343 37.5953C5.36138 37.8313 6.12564 37.8386 6.83794 37.616C7.55025 37.3935 8.17449 36.9526 8.62224 36.3556L10 34.4444C10.3324 34.0041 10.7621 33.6466 11.2555 33.3999C11.749 33.1532 12.2928 33.0239 12.8445 33.0222H29.4778C31.6743 33.0193 33.7804 32.1469 35.3357 30.5958C36.891 29.0447 37.769 26.941 37.7778 24.7444V10.5222C37.7802 9.43202 37.5664 8.35217 37.1487 7.34516C36.7311 6.33815 36.1178 5.42398 35.3445 4.65555ZM35.4 24.7444C35.3971 26.3142 34.7722 27.8188 33.6622 28.9288C32.5522 30.0388 31.0476 30.6637 29.4778 30.6667H12.8889C11.969 30.6679 11.0619 30.8823 10.2388 31.2929C9.41564 31.7035 8.69879 32.2992 8.14446 33.0333L6.72224 34.9333C6.57182 35.1301 6.36372 35.2749 6.12699 35.3477C5.89027 35.4204 5.63673 35.4175 5.40178 35.3391C5.16684 35.2608 4.96221 35.1111 4.81648 34.9109C4.67075 34.7106 4.59119 34.4699 4.5889 34.2222V10.5222C4.58744 9.74263 4.73991 8.97043 5.03757 8.2499C5.33523 7.52937 5.77222 6.87471 6.32347 6.32345C6.87472 5.7722 7.52939 5.33521 8.24992 5.03755C8.97044 4.73989 9.74265 4.58742 10.5222 4.58889H29.4778C31.0485 4.58889 32.5548 5.21283 33.6654 6.32346C34.7761 7.4341 35.4 8.94044 35.4 10.5111V24.7444Z" fill="black"/>
<path fill-rule="evenodd" clip-rule="evenodd" d="M12.7667 9.33334L13.6778 10.4556L15.0222 10.9667L14.2333 12.1778L14.1667 13.6222L12.7667 13.2445L11.3778 13.6222L11.3111 12.1778L10.5222 10.9667L11.8667 10.4556L12.7667 9.33334Z" fill="black"/>
<path fill-rule="evenodd" clip-rule="evenodd" d="M18.7 9.33334L19.6 10.4556L20.9556 10.9667L20.1667 12.1778L20.0889 13.6222L18.7 13.2445L17.3 13.6222L17.2333 12.1778L16.4445 10.9667L17.7889 10.4556L18.7 9.33334Z" fill="black"/>
<path fill-rule="evenodd" clip-rule="evenodd" d="M24.6222 9.33334L25.5333 10.4556L26.8778 10.9667L26.0889 12.1778L26.0222 13.6222L24.6222 13.2445L23.2333 13.6222L23.1555 12.1778L22.3666 10.9667L23.7222 10.4556L24.6222 9.33334Z" fill="black"/>
<path d="M10.5222 23.5555H20V25.9222H10.5222V23.5555Z" fill="black"/>
<path d="M10.5222 17.6333H30.6667V20H10.5222V17.6333Z" fill="black"/>
</svg>
