<svg width="40" height="40" viewBox="0 0 40 40" fill="none" xmlns="http://www.w3.org/2000/svg">
<path d="M18.7111 23.8778C18.4536 23.8775 18.202 23.8001 17.9889 23.6556L14.1111 21.1111L15.5556 18.8889L18.6444 20.9444L24.3667 16.3667L25.9778 18.3889L19.5111 23.5556C19.2894 23.7516 19.0069 23.8654 18.7111 23.8778Z" fill="#1F4B3F"/>
<path d="M36.2222 15.8111L35.4444 14.9C34.9119 14.2751 34.5927 13.4966 34.5333 12.6778L34.4444 11.4889C34.3269 9.95432 33.664 8.51251 32.5757 7.42424C31.4875 6.33597 30.0457 5.67311 28.5111 5.55554L27.3111 5.46665C26.4923 5.40729 25.7137 5.0881 25.0889 4.55554L24.1778 3.77776C23.0107 2.77423 21.5225 2.22238 19.9833 2.22238C18.4441 2.22238 16.956 2.77423 15.7889 3.77776L14.8778 4.55554C14.2533 5.08877 13.4746 5.40806 12.6556 5.46665L11.4889 5.55554C9.95354 5.67088 8.51047 6.33303 7.42176 7.42174C6.33305 8.51046 5.67089 9.95353 5.55556 11.4889L5.45556 12.6889C5.3962 13.5077 5.077 14.2863 4.54444 14.9111L3.76667 15.8222C2.7661 16.9885 2.21606 18.4744 2.21606 20.0111C2.21606 21.5478 2.7661 23.0337 3.76667 24.2L4.54444 25.1111C5.077 25.7359 5.3962 26.5145 5.45556 27.3333L5.55556 28.5111C5.67312 30.0456 6.33599 31.4875 7.42426 32.5757C8.51253 33.664 9.95434 34.3269 11.4889 34.4444L12.6889 34.5333C13.5079 34.5919 14.2867 34.9112 14.9111 35.4444L15.8222 36.2222C16.9893 37.2257 18.4775 37.7776 20.0167 37.7776C21.5559 37.7776 23.044 37.2257 24.2111 36.2222L25.1222 35.4444C25.7471 34.9119 26.5256 34.5927 27.3444 34.5333L28.5111 34.4444C30.0457 34.3269 31.4875 33.664 32.5757 32.5757C33.664 31.4875 34.3269 30.0456 34.4444 28.5111L34.5444 27.3111C34.603 26.4921 34.9223 25.7133 35.4556 25.0889L36.2333 24.1778C37.2294 23.0109 37.7757 21.5265 37.7736 19.9924C37.7716 18.4582 37.2214 16.9753 36.2222 15.8111ZM34.2556 22.4778L33.4778 23.3889C32.5937 24.4227 32.0607 25.7105 31.9556 27.0667L31.8667 28.2555C31.7953 29.1748 31.3977 30.0382 30.7458 30.6902C30.0938 31.3421 29.2303 31.7397 28.3111 31.8111L27.1111 31.9C25.7549 32.0051 24.4671 32.5381 23.4333 33.4222L22.5222 34.2C21.8224 34.803 20.9293 35.1346 20.0056 35.1346C19.0818 35.1346 18.1887 34.803 17.4889 34.2L16.5778 33.4222C15.544 32.5381 14.2562 32.0051 12.9 31.9L11.7111 31.8111C10.7919 31.7397 9.92842 31.3421 9.27646 30.6902C8.62451 30.0382 8.22697 29.1748 8.15556 28.2555L8.04444 27.1111C7.93858 25.7551 7.40565 24.4675 6.52222 23.4333L5.74444 22.5222C5.14361 21.8214 4.81334 20.9287 4.81334 20.0055C4.81334 19.0824 5.14361 18.1897 5.74444 17.4889L6.52222 16.5778C7.40848 15.541 7.94164 14.249 8.04444 12.8889L8.13333 11.7C8.20475 10.7808 8.60228 9.91729 9.25424 9.26533C9.90619 8.61338 10.7697 8.21584 11.6889 8.14443L12.8889 8.05554C14.2451 7.95043 15.5329 7.41741 16.5667 6.53332L17.4778 5.75554C18.1776 5.15256 19.0707 4.82089 19.9944 4.82089C20.9182 4.82089 21.8113 5.15256 22.5111 5.75554L23.4222 6.53332C24.4604 7.41556 25.7523 7.94477 27.1111 8.04443L28.3 8.13332C29.2192 8.20473 30.0827 8.60227 30.7347 9.25422C31.3866 9.90618 31.7841 10.7696 31.8556 11.6889L31.9556 12.8889C32.0607 14.2451 32.5937 15.5329 33.4778 16.5667L34.2556 17.4778C34.8564 18.1786 35.1867 19.0713 35.1867 19.9944C35.1867 20.9176 34.8564 21.8103 34.2556 22.5111V22.4778Z" fill="#1F4B3F"/>
</svg>
