<svg width="40" height="40" viewBox="0 0 40 40" fill="none" xmlns="http://www.w3.org/2000/svg">
<path d="M31.4 9.7889V4.5889H34.0445V2.22223H5.95557V4.5889H8.60001V9.7889C8.60172 10.7648 8.82931 11.727 9.26496 12.6002C9.70061 13.4734 10.3325 14.234 11.1111 14.8222L18.0222 20L11.1111 25.1778C10.3325 25.766 9.70061 26.5266 9.26496 27.3998C8.82931 28.273 8.60172 29.2353 8.60001 30.2111V35.4111H5.95557V37.7778H34.0445V35.4111H31.4V30.2111C31.3983 29.2353 31.1707 28.273 30.7351 27.3998C30.2994 26.5266 29.6675 25.766 28.8889 25.1778L21.9778 20L28.8889 14.8222C29.6675 14.234 30.2994 13.4734 30.7351 12.6002C31.1707 11.727 31.3983 10.7648 31.4 9.7889ZM27.4556 27.0778C27.9404 27.4441 28.3341 27.9175 28.6058 28.461C28.8776 29.0045 29.0201 29.6035 29.0222 30.2111V35.4111H10.9778V31.8556H25.9222V29.4778H11.1111C11.2878 28.5187 11.8144 27.6594 12.5889 27.0667L20.0445 21.5111L27.4556 27.0778ZM27.4556 12.9333L20 18.4889L12.5445 12.9333C12.0581 12.5659 11.6635 12.0907 11.3917 11.5452C11.1199 10.9996 10.9782 10.3984 10.9778 9.7889V4.5889H29.0222V8.14445H14.0778V10.5222H28.8889C28.7211 11.4707 28.2111 12.3247 27.4556 12.9222V12.9333Z" fill="#1F4B3F"/>
</svg>
